<?xml version="1.0" encoding="utf-8"?>
<!-- Generator: Adobe Illustrator 27.5.0, SVG Export Plug-In . SVG Version: 6.00 Build 0)  -->
<svg version="1.1" id="Layer_1" xmlns="http://www.w3.org/2000/svg" xmlns:xlink="http://www.w3.org/1999/xlink" x="0px" y="0px"
	 viewBox="0 0 326.5 73.8" style="enable-background:new 0 0 326.5 73.8;" xml:space="preserve">
<style type="text/css">
	.st0{enable-background:new    ;}
	.st1{fill:#1D1D1F;}
	.st2{fill:none;stroke:#5DC2A7;}
</style>
<g id="Portfolio">
	<g id="Portfolio_x2F_Production---Desktop" transform="translate(-140.000000, -50.000000)">
		<g id="Header" transform="translate(140.000000, 50.000000)">
			<g id="Group" transform="translate(832.000000, 0.000000)">
				<g class="st0">
					<path class="st1" d="M-832,52.6c0-4.2,0.6-7.8,1.9-10.6c0.9-2.1,2.2-4,3.9-5.7s3.4-2.9,5.4-3.7c2.6-1.1,5.6-1.6,8.9-1.6
						c6.1,0,11,1.9,14.7,5.7s5.5,9.1,5.5,15.8c0,6.7-1.8,11.9-5.5,15.7c-3.6,3.8-8.5,5.7-14.6,5.7c-6.2,0-11.1-1.9-14.7-5.6
						C-830.2,64.4-832,59.2-832,52.6z M-823.4,52.3c0,4.7,1.1,8.3,3.3,10.7c2.2,2.4,4.9,3.6,8.3,3.6s6.1-1.2,8.2-3.6
						c2.1-2.4,3.2-6,3.2-10.8c0-4.8-1-8.3-3.1-10.6s-4.9-3.5-8.3-3.5s-6.2,1.2-8.4,3.6C-822.3,44-823.4,47.5-823.4,52.3z"/>
					<path class="st1" d="M-785.2,31.6h8.4v22.5c0,3.6,0.1,5.9,0.3,6.9c0.4,1.7,1.2,3.1,2.6,4.1c1.3,1,3.2,1.5,5.5,1.5
						c2.4,0,4.2-0.5,5.4-1.5c1.2-1,1.9-2.2,2.2-3.6c0.2-1.4,0.4-3.8,0.4-7.1v-23h8.4v21.8c0,5-0.2,8.5-0.7,10.6s-1.3,3.8-2.5,5.2
						c-1.2,1.4-2.8,2.5-4.9,3.4c-2,0.8-4.7,1.3-8,1.3c-4,0-7-0.5-9-1.4c-2-0.9-3.7-2.1-4.9-3.6c-1.2-1.5-2-3-2.4-4.6
						c-0.5-2.4-0.8-5.9-0.8-10.5V31.6z"/>
					<path class="st1" d="M-743.3,73.1V31.6h17.6c4.4,0,7.7,0.4,9.7,1.1c2,0.7,3.6,2.1,4.8,4s1.8,4.1,1.8,6.5c0,3.1-0.9,5.7-2.7,7.7
						c-1.8,2-4.6,3.3-8.2,3.8c1.8,1.1,3.3,2.2,4.5,3.5s2.8,3.5,4.8,6.7l5.1,8.1h-10l-6.1-9c-2.2-3.2-3.6-5.3-4.4-6.1
						c-0.8-0.8-1.6-1.4-2.5-1.7c-0.9-0.3-2.3-0.5-4.2-0.5h-1.7v17.3H-743.3z M-734.9,49.2h6.2c4,0,6.5-0.2,7.5-0.5s1.8-0.9,2.4-1.8
						s0.8-1.9,0.8-3.1c0-1.4-0.4-2.5-1.1-3.4c-0.7-0.9-1.8-1.4-3.2-1.6c-0.7-0.1-2.7-0.1-6.1-0.1h-6.5V49.2z"/>
					<path class="st1" d="M-679.4,73.1l-9.9-41.5h8.6l6.3,28.5l7.6-28.5h10l7.3,29l6.4-29h8.4l-10.1,41.5h-8.9l-8.3-31l-8.2,31
						H-679.4z"/>
					<path class="st1" d="M-632.3,52.6c0-4.2,0.6-7.8,1.9-10.6c0.9-2.1,2.2-4,3.9-5.7c1.6-1.7,3.4-2.9,5.4-3.7
						c2.6-1.1,5.6-1.6,8.9-1.6c6.1,0,11,1.9,14.7,5.7c3.7,3.8,5.5,9.1,5.5,15.8c0,6.7-1.8,11.9-5.5,15.7c-3.6,3.8-8.5,5.7-14.6,5.7
						c-6.2,0-11.1-1.9-14.7-5.6C-630.4,64.4-632.3,59.2-632.3,52.6z M-623.6,52.3c0,4.7,1.1,8.3,3.3,10.7c2.2,2.4,4.9,3.6,8.3,3.6
						s6.1-1.2,8.2-3.6c2.1-2.4,3.2-6,3.2-10.8c0-4.8-1-8.3-3.1-10.6c-2.1-2.3-4.9-3.5-8.3-3.5s-6.2,1.2-8.4,3.6
						C-622.6,44-623.6,47.5-623.6,52.3z"/>
					<path class="st1" d="M-585.4,73.1V31.6h17.6c4.4,0,7.7,0.4,9.7,1.1c2,0.7,3.6,2.1,4.8,4s1.8,4.1,1.8,6.5c0,3.1-0.9,5.7-2.7,7.7
						c-1.8,2-4.6,3.3-8.2,3.8c1.8,1.1,3.3,2.2,4.5,3.5s2.8,3.5,4.8,6.7l5.1,8.1h-10l-6.1-9c-2.2-3.2-3.6-5.3-4.4-6.1
						c-0.8-0.8-1.6-1.4-2.5-1.7c-0.9-0.3-2.3-0.5-4.2-0.5h-1.7v17.3H-585.4z M-577,49.2h6.2c4,0,6.5-0.2,7.5-0.5s1.8-0.9,2.4-1.8
						s0.8-1.9,0.8-3.1c0-1.4-0.4-2.5-1.1-3.4c-0.7-0.9-1.8-1.4-3.2-1.6c-0.7-0.1-2.7-0.1-6.1-0.1h-6.5V49.2z"/>
					<path class="st1" d="M-543.4,73.1V31.6h8.4V50l16.9-18.4h11.3l-15.6,16.2l16.5,25.3h-10.8l-11.4-19.5l-6.8,6.9v12.5H-543.4z"/>
				</g>
				<g class="st0">
					<path class="st1" d="M-672.1,13.1V0.2h4.9c0.9,0,1.5,0,2,0.1c0.6,0.1,1.2,0.3,1.6,0.6c0.4,0.3,0.8,0.7,1,1.2
						c0.3,0.5,0.4,1.1,0.4,1.8c0,1.1-0.3,2-1,2.8c-0.7,0.8-2,1.1-3.8,1.1h-3.3v5.2H-672.1z M-670.4,6.4h3.3c1.1,0,1.9-0.2,2.3-0.6
						s0.7-1,0.7-1.7c0-0.5-0.1-1-0.4-1.4c-0.3-0.4-0.6-0.6-1.1-0.8c-0.3-0.1-0.8-0.1-1.6-0.1h-3.3V6.4z"/>
					<path class="st1" d="M-660.6,6.8c0-2.1,0.6-3.8,1.7-5c1.1-1.2,2.6-1.8,4.4-1.8c1.2,0,2.3,0.3,3.2,0.9s1.7,1.4,2.2,2.4
						c0.5,1,0.8,2.2,0.8,3.5c0,1.3-0.3,2.5-0.8,3.5s-1.3,1.8-2.2,2.3c-1,0.5-2,0.8-3.1,0.8c-1.2,0-2.3-0.3-3.3-0.9s-1.7-1.4-2.2-2.4
						S-660.6,8-660.6,6.8z M-658.9,6.9c0,1.6,0.4,2.8,1.3,3.7c0.8,0.9,1.9,1.3,3.1,1.3c1.3,0,2.3-0.5,3.2-1.4
						c0.8-0.9,1.2-2.2,1.2-3.8c0-1-0.2-2-0.5-2.7c-0.4-0.8-0.9-1.4-1.6-1.8c-0.7-0.4-1.4-0.6-2.3-0.6c-1.2,0-2.2,0.4-3.1,1.2
						C-658.5,3.5-658.9,4.9-658.9,6.9z"/>
					<path class="st1" d="M-646.1,13.1V0.2h5.7c1.1,0,2,0.1,2.6,0.3s1.1,0.6,1.4,1.2s0.5,1.2,0.5,1.9c0,0.9-0.3,1.7-0.9,2.3
						s-1.5,1-2.7,1.2c0.5,0.2,0.8,0.4,1,0.6c0.5,0.5,1,1,1.4,1.7l2.2,3.5h-2.1l-1.7-2.7c-0.5-0.8-0.9-1.4-1.2-1.8s-0.6-0.7-0.9-0.9
						c-0.3-0.2-0.5-0.3-0.8-0.3c-0.2,0-0.5-0.1-0.9-0.1h-2v5.7H-646.1z M-644.4,5.9h3.7c0.8,0,1.4-0.1,1.8-0.2s0.8-0.4,1-0.8
						s0.3-0.7,0.3-1.2c0-0.6-0.2-1.1-0.7-1.5c-0.4-0.4-1.1-0.6-2.1-0.6h-4.1V5.9z"/>
					<path class="st1" d="M-630.2,13.1V1.7h-4.2V0.2h10.2v1.5h-4.3v11.4H-630.2z"/>
					<path class="st1" d="M-622.4,13.1V0.2h8.7v1.5h-7v4h6v1.5h-6v5.9H-622.4z"/>
					<path class="st1" d="M-612,6.8c0-2.1,0.6-3.8,1.7-5c1.1-1.2,2.6-1.8,4.4-1.8c1.2,0,2.3,0.3,3.2,0.9s1.7,1.4,2.2,2.4
						c0.5,1,0.8,2.2,0.8,3.5c0,1.3-0.3,2.5-0.8,3.5s-1.3,1.8-2.2,2.3c-1,0.5-2,0.8-3.1,0.8c-1.2,0-2.3-0.3-3.3-0.9s-1.7-1.4-2.2-2.4
						S-612,8-612,6.8z M-610.2,6.9c0,1.6,0.4,2.8,1.3,3.7c0.8,0.9,1.9,1.3,3.1,1.3c1.3,0,2.3-0.5,3.2-1.4c0.8-0.9,1.2-2.2,1.2-3.8
						c0-1-0.2-2-0.5-2.7c-0.4-0.8-0.9-1.4-1.6-1.8c-0.7-0.4-1.4-0.6-2.3-0.6c-1.2,0-2.2,0.4-3.1,1.2C-609.8,3.5-610.2,4.9-610.2,6.9
						z"/>
					<path class="st1" d="M-597.5,13.1V0.2h1.7v11.4h6.3v1.5H-597.5z"/>
					<path class="st1" d="M-587.2,13.1V0.2h1.7v12.9H-587.2z"/>
					<path class="st1" d="M-583,6.8c0-2.1,0.6-3.8,1.7-5c1.1-1.2,2.6-1.8,4.4-1.8c1.2,0,2.3,0.3,3.2,0.9s1.7,1.4,2.2,2.4
						c0.5,1,0.8,2.2,0.8,3.5c0,1.3-0.3,2.5-0.8,3.5s-1.3,1.8-2.2,2.3c-1,0.5-2,0.8-3.1,0.8c-1.2,0-2.3-0.3-3.3-0.9s-1.7-1.4-2.2-2.4
						S-583,8-583,6.8z M-581.2,6.9c0,1.6,0.4,2.8,1.3,3.7c0.8,0.9,1.9,1.3,3.1,1.3c1.3,0,2.3-0.5,3.2-1.4c0.8-0.9,1.2-2.2,1.2-3.8
						c0-1-0.2-2-0.5-2.7c-0.4-0.8-0.9-1.4-1.6-1.8c-0.7-0.4-1.4-0.6-2.3-0.6c-1.2,0-2.2,0.4-3.1,1.2C-580.8,3.5-581.2,4.9-581.2,6.9
						z"/>
				</g>
				<line id="Line-4" class="st2" x1="-565.5" y1="7.6" x2="-505.5" y2="7.7"/>
			</g>
		</g>
	</g>
</g>
</svg>
