<?xml version="1.0" encoding="UTF-8"?>
<svg width="389.827586px" height="85px" viewBox="0 0 389.827586 85" version="1.1" xmlns="http://www.w3.org/2000/svg" xmlns:xlink="http://www.w3.org/1999/xlink">
    <title>Logo</title>
    <defs>
        <polygon id="path-1" points="0 0 71.8103448 0 71.8103448 71.8103448 0 71.8103448"></polygon>
        <polygon id="path-3" points="0 85 389.827586 85 389.827586 0 0 0"></polygon>
    </defs>
    <g id="Portfolio" stroke="none" stroke-width="1" fill="none" fill-rule="evenodd">
        <g id="Portfolio/Production---Desktop" transform="translate(-140.000000, -50.000000)">
            <g id="Group-46" transform="translate(140.000000, 50.000000)">
                <g id="Group-3">
                    <mask id="mask-2" fill="white">
                        <use xlink:href="#path-1"></use>
                    </mask>
                    <g id="Clip-2"></g>
                    <path d="M71.8103448,35.9049801 C71.8103448,55.7346936 55.7352062,71.8103448 35.9048977,71.8103448 C16.0751386,71.8103448 0,55.7346936 0,35.9049801 C0,16.0752665 16.0751386,-0.000384637538 35.9048977,-0.000384637538 C55.7352062,-0.000384637538 71.8103448,16.0752665 71.8103448,35.9049801" id="Fill-1" fill="#28C5A6" mask="url(#mask-2)"></path>
                </g>
                <polygon id="Fill-4" fill="#FFFFFF" points="35.9048972 11.7241379 14.6551724 23.9365077 14.6551724 23.9370555 14.6551724 48.361795 14.6557228 48.361795 35.9054476 60.5747126 57.1551724 48.3623429 57.1551724 48.361795 57.1546221 23.9370555 57.1546221 23.9365077"></polygon>
                <polygon id="Fill-6" fill="#1A55A8" points="35.9054444 23.9367816 25.4028429 30.0429665 25.4022989 30.0429665 25.4022989 42.2553362 25.4022989 42.2558841 35.9049004 48.362069 46.408046 42.2558841 46.408046 42.2553362 46.408046 30.0429665 46.408046 30.0429665"></polygon>
                <path d="M107.936714,29.4447481 C106.365818,27.807967 104.453494,26.9884727 102.197537,26.9884727 C99.9415797,26.9884727 98.0276013,27.79693 96.4578081,29.4116372 C94.8874633,31.0274482 94.1025667,33.2513956 94.1025667,36.0829276 C94.1025667,38.9155633 94.8874633,41.1610328 96.4578081,42.8209916 C98.0276013,44.4803985 99.9415797,45.3103779 102.197537,45.3103779 C104.453494,45.3103779 106.365818,44.4919873 107.936714,42.8541025 C109.505956,41.2173213 110.291956,38.9817851 110.291956,36.1491494 C110.291956,33.3176173 109.505956,31.082633 107.936714,29.4447481 M84.7135927,26.0591607 C86.151007,23.182929 88.1085601,20.9705704 90.586252,19.4209812 C93.0628407,17.8724957 95.8279051,17.0977011 98.8797905,17.0977011 C101.48931,17.0977011 103.778362,17.6285789 105.746946,18.6908863 C107.714979,19.7531937 109.230718,21.1471617 110.291956,22.8727904 L110.291956,17.6285789 L121.637931,17.6285789 L121.637931,54.6697198 L110.291956,54.6697198 L110.291956,49.4260602 C109.18604,51.1516889 107.64879,52.5456569 105.680757,53.6079643 C103.712172,54.6697198 101.422569,55.2011494 98.8136011,55.2011494 C95.8047388,55.2011494 93.0628407,54.4158697 90.586252,52.8442067 C88.1085601,51.2741991 86.151007,49.0386629 84.7135927,46.1398054 C83.2761784,43.2414998 82.5574713,39.8895751 82.5574713,36.0829276 C82.5574713,32.2773839 83.2761784,28.9364961 84.7135927,26.0591607" id="Fill-8" fill="#1A3C64"></path>
                <path d="M132.917621,53.5417425 C130.42002,52.436391 128.447079,50.9199127 127.000984,48.9945151 C125.55489,47.0691174 124.743306,44.9119436 124.568966,42.5224418 L135.679192,42.5224418 C135.810357,43.8065921 136.402239,44.8457219 137.454293,45.6425904 C138.506346,46.438907 139.798321,46.8373413 141.332406,46.8373413 C142.734779,46.8373413 143.819623,46.5614173 144.586939,46.0073619 C145.353161,45.4544102 145.737366,44.7353523 145.737366,43.8501881 C145.737366,42.7878807 145.188659,42.002601 144.093977,41.4932453 C142.997656,40.9849933 141.222555,40.4210047 138.768676,39.8007275 C136.139363,39.1815541 133.947267,38.5287179 132.19512,37.842219 C130.441334,37.1568238 128.929111,36.0729943 127.658449,34.5896269 C126.387241,33.1073632 125.752184,31.1047069 125.752184,28.5822097 C125.752184,26.4575949 126.332589,24.522264 127.493946,22.7740096 C128.654757,21.0257552 130.364275,19.6433759 132.621953,18.6246645 C134.879085,17.6070568 137.56305,17.0977011 140.674941,17.0977011 C145.277195,17.0977011 148.903362,18.2494079 151.555629,20.5500622 C154.206803,22.8512683 155.729957,25.9051951 156.124545,29.7107388 L145.737366,29.7107388 C145.561932,28.4276923 145.002841,27.4100846 144.061186,26.6568121 C143.11789,25.9051951 141.88002,25.5282829 140.346482,25.5282829 C139.032099,25.5282829 138.023221,25.7837885 137.322581,26.2920405 C136.620848,26.8008444 136.270528,27.4983802 136.270528,28.3829926 C136.270528,29.4447481 136.829619,30.2416166 137.947255,30.7724944 C139.06489,31.303924 140.807199,31.8348018 143.173635,32.3656795 C145.890392,33.0742524 148.103802,33.7712364 149.81332,34.4571834 C151.522838,35.1436823 153.023584,36.2495857 154.316653,37.7759972 C155.609176,39.3029606 156.277571,41.3503167 156.321839,43.9164098 C156.321839,46.0851725 155.719026,48.0216071 154.513947,49.72461 C153.308322,51.4287166 151.57749,52.7680516 149.320358,53.7409596 C147.062679,54.7138676 144.444297,55.2011494 141.464664,55.2011494 C138.264237,55.2011494 135.415769,54.6481977 132.917621,53.5417425" id="Fill-10" fill="#1A3C64"></path>
                <path d="M166.136012,53.5417425 C163.638411,52.436391 161.66547,50.9199127 160.219375,48.9945151 C158.77328,47.0691174 157.961697,44.9119436 157.787356,42.5224418 L168.897583,42.5224418 C169.028748,43.8065921 169.62063,44.8457219 170.672683,45.6425904 C171.724736,46.438907 173.016712,46.8373413 174.550797,46.8373413 C175.95317,46.8373413 177.038014,46.5614173 177.80533,46.0073619 C178.571552,45.4544102 178.955757,44.7353523 178.955757,43.8501881 C178.955757,42.7878807 178.407049,42.002601 177.312368,41.4932453 C176.216046,40.9849933 174.440946,40.4210047 171.987066,39.8007275 C169.357754,39.1815541 167.165658,38.5287179 165.413511,37.842219 C163.659725,37.1568238 162.147501,36.0729943 160.87684,34.5896269 C159.605632,33.1073632 158.970574,31.1047069 158.970574,28.5822097 C158.970574,26.4575949 159.55098,24.522264 160.712337,22.7740096 C161.873148,21.0257552 163.582666,19.6433759 165.840344,18.6246645 C168.097476,17.6070568 170.781441,17.0977011 173.893332,17.0977011 C178.495586,17.0977011 182.121753,18.2494079 184.77402,20.5500622 C187.425193,22.8512683 188.948348,25.9051951 189.342936,29.7107388 L178.955757,29.7107388 C178.780323,28.4276923 178.221232,27.4100846 177.279576,26.6568121 C176.336281,25.9051951 175.098411,25.5282829 173.564873,25.5282829 C172.25049,25.5282829 171.241612,25.7837885 170.540972,26.2920405 C169.839239,26.8008444 169.488919,27.4983802 169.488919,28.3829926 C169.488919,29.4447481 170.04801,30.2416166 171.165645,30.7724944 C172.283281,31.303924 174.02559,31.8348018 176.392026,32.3656795 C179.108782,33.0742524 181.322193,33.7712364 183.031711,34.4571834 C184.741228,35.1436823 186.241975,36.2495857 187.535044,37.7759972 C188.827566,39.3029606 189.495962,41.3503167 189.54023,43.9164098 C189.54023,46.0851725 188.937417,48.0216071 187.732338,49.72461 C186.526713,51.4287166 184.795881,52.7680516 182.538749,53.7409596 C180.28107,54.7138676 177.662688,55.2011494 174.683055,55.2011494 C171.482628,55.2011494 168.63416,54.6481977 166.136012,53.5417425" id="Fill-12" fill="#1A3C64"></path>
                <path d="M216.530138,32.5648967 C216.530138,30.6179769 215.867117,29.0694915 214.541625,27.9183366 C213.215031,26.7677335 211.558305,26.1921561 209.56869,26.1921561 C207.66836,26.1921561 206.065645,26.7462114 204.762199,27.851563 C203.458202,28.95857 202.651333,30.5296813 202.342695,32.5648967 L216.530138,32.5648967 Z M227.932671,38.8714155 L202.276558,38.8714155 C202.452372,41.1726216 203.193104,42.931913 204.497101,44.1487378 C205.800546,45.3661145 207.40271,45.974251 209.304143,45.974251 C212.132042,45.974251 214.09906,44.7789483 215.204095,42.3894465 L227.26965,42.3894465 C226.65072,44.8236479 225.534662,47.0144845 223.922026,48.9608523 C222.308289,50.9088757 220.285605,52.4358391 217.856181,53.5417425 C215.424551,54.6481977 212.706881,55.2011494 209.701515,55.2011494 C206.076668,55.2011494 202.850295,54.4274585 200.022396,52.8778694 C197.193395,51.3288321 194.983324,49.1170253 193.392734,46.2396899 C191.801593,43.3634582 191.005747,39.9999446 191.005747,36.1497012 C191.005747,32.2994578 191.790019,28.9364961 193.359666,26.0591607 C194.927659,23.1834808 197.126707,20.9705704 199.956259,19.421533 C202.784158,17.8724957 206.032576,17.0977011 209.701515,17.0977011 C213.281168,17.0977011 216.46345,17.8509737 219.24836,19.3547594 C222.032719,20.8602008 224.209721,23.0057857 225.778817,25.7937218 C227.346258,28.5822097 228.132184,31.8348018 228.132184,35.5520498 C228.132184,36.6143572 228.065496,37.7208124 227.932671,38.8714155 L227.932671,38.8714155 Z" id="Fill-14" fill="#1A3C64"></path>
                <path d="M288.551539,21.7331342 C291.260475,24.4977525 292.614943,28.3382296 292.614943,33.2529241 L292.614943,54.7126437 L281.382636,54.7126437 L281.382636,34.7671162 C281.382636,32.3970525 280.755385,30.5654656 279.500332,29.2701664 C278.244181,27.976509 276.51567,27.3285858 274.313149,27.3285858 C272.110079,27.3285858 270.382116,27.976509 269.127064,29.2701664 C267.872012,30.5654656 267.243662,32.3970525 267.243662,34.7671162 L267.243662,54.7126437 L256.011904,54.7126437 L256.011904,34.7671162 C256.011904,32.3970525 255.384104,30.5654656 254.129051,29.2701664 C252.87345,27.976509 251.144938,27.3285858 248.942417,27.3285858 C246.739347,27.3285858 245.011385,27.976509 243.755783,29.2701664 C242.500731,30.5654656 241.87293,32.3970525 241.87293,34.7671162 L241.87293,54.7126437 L230.574713,54.7126437 L230.574713,17.9813087 L241.87293,17.9813087 L241.87293,22.5890057 C243.018131,21.0534716 244.515405,19.8353322 246.365303,18.9356821 C248.215201,18.0365792 250.307321,17.5862069 252.642213,17.5862069 C255.417608,17.5862069 257.895307,18.1783124 260.075308,19.3630706 C262.255858,20.548376 263.961851,22.2382298 265.196031,24.4320846 C266.473054,22.4138914 268.212551,20.7683635 270.415072,19.4949536 C272.617043,18.2226382 275.017296,17.5862069 277.61693,17.5862069 C282.197734,17.5862069 285.842603,18.968516 288.551539,21.7331342" id="Fill-16" fill="#1A3C64"></path>
                <path d="M322.680282,29.5752937 C321.109341,27.9708332 319.174348,27.1675062 316.874752,27.1675062 C314.618731,27.1675062 312.704698,27.9818001 311.134861,29.6081945 C309.564472,31.2356855 308.779553,33.456487 308.779553,36.2700506 C308.779553,39.0847108 309.564472,41.3060606 311.134861,42.932455 C312.704698,44.5599461 314.618731,45.3731433 316.874752,45.3731433 C319.130221,45.3731433 321.054734,44.5484308 322.646635,42.8995542 C324.239088,41.2506777 325.036142,39.0189093 325.036142,36.204249 C325.036142,33.3906855 324.25012,31.1808509 322.680282,29.5752937 M313.424529,18.9225751 C315.414681,17.8670089 317.692214,17.3395 320.258231,17.3395 C323.310754,17.3395 326.074242,18.1093779 328.552556,19.6480369 C331.029214,21.1877926 332.986823,23.3861119 334.424277,26.2440915 C335.861181,29.1031677 336.58046,32.4228547 336.58046,36.204249 C336.58046,39.9867401 335.861181,43.3179423 334.424277,46.1973074 C332.986823,49.0777691 331.029214,51.299119 328.552556,52.8591635 C326.074242,54.420853 323.310754,55.2011494 320.258231,55.2011494 C317.648087,55.2011494 315.370002,54.6835108 313.424529,53.6509752 C311.476849,52.6184396 309.951139,51.243736 308.845744,49.5285096 L308.845744,54.6736405 L297.5,54.6736405 L297.5,5.86206897 L308.845744,5.86206897 L308.845744,23.0779414 C309.907563,21.3632633 311.433273,19.9781412 313.424529,18.9225751" id="Fill-18" fill="#1A3C64"></path>
                <mask id="mask-4" fill="white">
                    <use xlink:href="#path-3"></use>
                </mask>
                <g id="Clip-21"></g>
                <polygon id="Fill-20" fill="#1A3C64" mask="url(#mask-4)" points="339.022989 54.7126437 350.258621 54.7126437 350.258621 5.86206897 339.022989 5.86206897"></polygon>
                <path d="M378.22554,32.5648967 C378.22554,30.6179769 377.562519,29.0694915 376.237028,27.9183366 C374.910434,26.7677335 373.253707,26.1921561 371.264643,26.1921561 C369.363762,26.1921561 367.761047,26.7462114 366.457601,27.851563 C365.153604,28.95857 364.346735,30.5296813 364.038097,32.5648967 L378.22554,32.5648967 Z M389.628625,38.8714155 L363.97196,38.8714155 C364.147774,41.1726216 364.888506,42.931913 366.193054,44.1487378 C367.495949,45.3661145 369.098112,45.974251 370.999545,45.974251 C373.827444,45.974251 375.794462,44.7789483 376.900049,42.3894465 L388.965603,42.3894465 C388.346122,44.8236479 387.230615,47.0144845 385.61798,48.9608523 C384.003691,50.9088757 381.981559,52.4358391 379.551583,53.5417425 C377.120505,54.6481977 374.402283,55.2011494 371.396917,55.2011494 C367.772621,55.2011494 364.545697,54.4274585 361.717798,52.8778694 C358.888797,51.3288321 356.679277,49.1170253 355.088136,46.2396899 C353.496995,43.3634582 352.701149,39.9999446 352.701149,36.1497012 C352.701149,32.2994578 353.485421,28.9364961 355.055068,26.0591607 C356.623612,23.1834808 358.82266,20.9705704 361.651661,19.421533 C364.47956,17.8724957 367.727979,17.0977011 371.396917,17.0977011 C374.977122,17.0977011 378.159403,17.8509737 380.944313,19.3547594 C383.728121,20.8602008 385.905124,23.0057857 387.474219,25.7937218 C389.042212,28.5822097 389.827586,31.8348018 389.827586,35.5520498 C389.827586,36.6143572 389.761449,37.7208124 389.628625,38.8714155 L389.628625,38.8714155 Z" id="Fill-22" fill="#1A3C64" mask="url(#mask-4)"></path>
                <path d="M140.349126,71.8314349 C140.077892,71.3236081 139.712103,70.9339968 139.251761,70.6626009 C138.790879,70.3912049 138.297037,70.2557845 137.768616,70.2557845 C137.240195,70.2557845 136.752838,70.3878749 136.306003,70.6520558 C135.858628,70.9167917 135.496082,71.3025181 135.218904,71.8103448 C134.940646,72.3187266 134.801787,72.9203487 134.801787,73.6157661 C134.801787,74.3117385 134.940646,74.9200206 135.218904,75.4417224 C135.496082,75.9639792 135.86187,76.3641355 136.315729,76.6421915 C136.769587,76.9208025 137.253703,77.0595529 137.768616,77.0595529 C138.297037,77.0595529 138.790879,76.9241325 139.251761,76.6527365 C139.712103,76.3813406 140.077892,75.9917292 140.349126,75.4839025 C140.61982,74.9760757 140.755438,74.3672386 140.755438,73.6579462 C140.755438,72.9480988 140.61982,72.3398167 140.349126,71.8314349 M132.577339,70.5060903 C133.030658,69.6014372 133.650931,68.9060198 134.436538,68.4192831 C135.222146,67.9319915 136.095283,67.6883456 137.057571,67.6883456 C137.789148,67.6883456 138.486685,67.8520712 139.150183,68.1789673 C139.813681,68.5058634 140.342102,68.9409849 140.734906,69.4832218 L140.734906,63.9942529 L143.62069,63.9942529 L143.62069,79.4388461 L140.734906,79.4388461 L140.734906,77.7277752 C140.382625,78.2983172 139.888244,78.7573038 139.251761,79.104735 C138.614738,79.4527212 137.876678,79.6264368 137.03704,79.6264368 C136.0888,79.6264368 135.222146,79.3761309 134.436538,78.8755192 C133.650931,78.3743525 133.030658,77.66839 132.577339,76.7570769 C132.122941,75.8457637 131.896552,74.7984751 131.896552,73.6157661 C131.896552,72.446932 132.122941,71.4107434 132.577339,70.5060903" id="Fill-23" fill="#2D363A" mask="url(#mask-4)"></path>
                <path d="M146.361351,79.137931 L149.144452,79.137931 L149.144452,67.746881 L146.361351,67.746881 L146.361351,79.137931 Z M146.550591,65.9064224 C146.2255,65.5843695 146.063218,65.1835804 146.063218,64.7035083 C146.063218,64.223983 146.2255,63.8226471 146.550591,63.5005941 C146.874626,63.1785412 147.282708,63.0172414 147.773253,63.0172414 C148.26274,63.0172414 148.670823,63.1785412 148.995386,63.5005941 C149.319949,63.8226471 149.482759,64.223983 149.482759,64.7035083 C149.482759,65.1835804 149.319949,65.5843695 148.995386,65.9064224 C148.670823,66.2284753 148.26274,66.3892284 147.773253,66.3892284 C147.282708,66.3892284 146.874626,66.2284753 146.550591,65.9064224 L146.550591,65.9064224 Z" id="Fill-24" fill="#2D363A" mask="url(#mask-4)"></path>
                <path d="M159.889356,71.9621735 C159.618122,71.4645465 159.252333,71.0827606 158.792531,70.8168157 C158.331649,70.5508708 157.837267,70.4181703 157.309387,70.4181703 C156.780966,70.4181703 156.293068,70.5476077 155.846233,70.8064825 C155.398858,71.0659011 155.036852,71.4438801 154.759134,71.941507 C154.481416,72.4396778 154.342557,73.0292162 154.342557,73.7106661 C154.342557,74.3926597 154.481416,74.9887244 154.759134,75.4999477 C155.036852,76.0117149 155.4021,76.4038341 155.855959,76.6763052 C156.309817,76.9493202 156.793933,77.0852839 157.309387,77.0852839 C157.837267,77.0852839 158.331649,76.9525834 158.792531,76.6866385 C159.252333,76.4206936 159.618122,76.0389076 159.889356,75.5412807 C160.160591,75.0436537 160.295668,74.4470452 160.295668,73.751999 C160.295668,73.056409 160.160591,72.4603443 159.889356,71.9621735 M158.792531,68.4037328 C159.428474,68.7376595 159.929879,69.1705678 160.295668,69.7019137 L160.295668,68.0866656 L163.16092,68.0866656 L163.16092,79.4983668 C163.16092,80.54855 162.95074,81.4856115 162.530921,82.310639 C162.110561,83.1356664 161.481103,83.7899235 160.641464,84.2739541 C159.801286,84.7579847 158.785507,85 157.593588,85 C155.994818,85 154.684572,84.6252842 153.662309,83.8753087 C152.638966,83.1253332 152.060297,82.1028865 151.92468,80.8074248 L154.748868,80.8074248 C154.897993,81.3257183 155.219476,81.7379601 155.713858,82.0452379 C156.20878,82.3519719 156.807981,82.5047951 157.512542,82.5047951 C158.338133,82.5047951 159.008654,82.2562535 159.523568,81.7586265 C160.037941,81.2604557 160.295668,80.5072171 160.295668,79.4983668 L160.295668,77.7400848 C159.929879,78.2714308 159.425772,78.7146723 158.782266,79.0692655 C158.138759,79.4233149 157.4034,79.6006115 156.57781,79.6006115 C155.629029,79.6006115 154.762376,79.355333 153.977309,78.8647762 C153.191161,78.3736755 152.571428,77.6818924 152.117569,76.7888831 C151.663711,75.8958739 151.436782,74.8696202 151.436782,73.7106661 C151.436782,72.5653083 151.663711,71.5499317 152.117569,70.6634487 C152.571428,69.7769657 153.187919,69.0955159 153.966503,68.6185554 C154.745086,68.141051 155.615522,67.9022989 156.57781,67.9022989 C157.417448,67.9022989 158.155509,68.0692622 158.792531,68.4037328" id="Fill-25" fill="#2D363A" mask="url(#mask-4)"></path>
                <path d="M165.901098,79.137931 L168.68463,79.137931 L168.68463,67.746881 L165.901098,67.746881 L165.901098,79.137931 Z M166.090368,65.9064224 C165.765755,65.5843695 165.603448,65.1835804 165.603448,64.7035083 C165.603448,64.223983 165.765755,63.8226471 166.090368,63.5005941 C166.41551,63.1785412 166.822598,63.0172414 167.313218,63.0172414 C167.80331,63.0172414 168.210927,63.1785412 168.536069,63.5005941 C168.860682,63.8226471 169.022989,64.223983 169.022989,64.7035083 C169.022989,65.1835804 168.860682,65.5843695 168.536069,65.9064224 C168.210927,66.2284753 167.80331,66.3892284 167.313218,66.3892284 C166.822598,66.3892284 166.41551,66.2284753 166.090368,65.9064224 L166.090368,65.9064224 Z" id="Fill-26" fill="#2D363A" mask="url(#mask-4)"></path>
                <path d="M175.253978,70.1377963 L175.253978,75.6319727 C175.253978,76.0146788 175.346836,76.2916228 175.533102,76.4622595 C175.719367,76.6334414 176.032008,76.7184872 176.473221,76.7184872 L177.816092,76.7184872 L177.816092,79.137931 L175.997942,79.137931 C173.559455,79.137931 172.340212,77.9625545 172.340212,75.6118016 L172.340212,70.1377963 L170.977011,70.1377963 L170.977011,67.7799562 L172.340212,67.7799562 L172.340212,64.9712644 L175.253978,64.9712644 L175.253978,67.7799562 L177.816092,67.7799562 L177.816092,70.1377963 L175.253978,70.1377963 Z" id="Fill-27" fill="#2D363A" mask="url(#mask-4)"></path>
                <path d="M187.734184,71.9711361 C187.462949,71.4724106 187.097161,71.0897818 186.636819,70.8232498 C186.175936,70.5567178 185.682095,70.4237243 185.153674,70.4237243 C184.625253,70.4237243 184.137895,70.5534475 183.691061,70.8128938 C183.243686,71.0728851 182.881139,71.4516985 182.603962,71.950424 C182.325703,72.4496946 182.186844,73.0405345 182.186844,73.7234887 C182.186844,74.4069879 182.325703,75.0043685 182.603962,75.5167204 C182.881139,76.0296173 183.246928,76.4226022 183.700786,76.6956748 C184.154645,76.9692926 184.638761,77.1055564 185.153674,77.1055564 C185.682095,77.1055564 186.175936,76.9725629 186.636819,76.7060309 C187.097161,76.4394989 187.462949,76.0568701 187.734184,75.5581446 C188.004878,75.059419 188.140495,74.4614935 188.140495,73.7649129 C188.140495,73.0677872 188.004878,72.4704067 187.734184,71.9711361 M179.962397,70.6695442 C180.415715,69.7811042 181.032206,69.09815 181.81133,68.6201366 C182.589914,68.1415781 183.460349,67.9022989 184.422097,67.9022989 C185.261735,67.9022989 185.996554,68.0734462 186.626553,68.4146508 C187.256552,68.7564004 187.761199,69.186994 188.140495,69.7058866 L188.140495,68.0870726 L191.005747,68.0870726 L191.005747,79.4422081 L188.140495,79.4422081 L188.140495,77.7819699 C187.774707,78.3150339 187.270059,78.7554385 186.626553,79.1037288 C185.983587,79.4525642 185.241744,79.6264368 184.402106,79.6264368 C183.453325,79.6264368 182.589914,79.3806169 181.81133,78.8889771 C181.032206,78.3967922 180.415715,77.7034819 179.962397,76.8085013 C179.507998,75.9135206 179.281609,74.8850014 179.281609,73.7234887 C179.281609,72.5756024 179.507998,71.5579843 179.962397,70.6695442" id="Fill-28" fill="#2D363A" mask="url(#mask-4)"></path>
                <polygon id="Fill-29" fill="#2D363A" mask="url(#mask-4)" points="193.936782 79.137931 196.867816 79.137931 196.867816 63.9942529 193.936782 63.9942529"></polygon>
                <path d="M213.079865,71.9855371 C212.80166,71.4824857 212.435771,71.0998367 211.981116,70.83814 C211.52592,70.5764433 211.03446,70.4450452 210.505112,70.4450452 C209.989296,70.4450452 209.504872,70.579742 209.050217,70.8485859 C208.595021,71.11688 208.228591,71.5066761 207.950386,72.016325 C207.672722,72.5265236 207.533619,73.1263368 207.533619,73.8152149 C207.533619,74.5046428 207.672722,75.1039062 207.950386,75.6141048 C208.228591,76.1237537 208.595021,76.513 209.050217,76.7818439 C209.504872,77.0506878 209.989296,77.1853846 210.505112,77.1853846 C211.03446,77.1853846 211.52592,77.0479389 211.981116,76.7719478 C212.435771,76.4959567 212.80166,76.1034117 213.079865,75.5932131 C213.358071,75.0835642 213.497173,74.4766038 213.497173,73.7739812 C213.497173,73.0851031 213.358071,72.4891383 213.079865,71.9855371 M209.050217,68.4295407 C209.694311,68.0782294 210.430419,67.9022989 211.25854,67.9022989 C212.221434,67.9022989 213.093397,68.1436536 213.873887,68.6258133 C214.653837,69.1085227 215.270868,69.7941021 215.726605,70.6831012 C216.180177,71.5721003 216.408046,72.6023936 216.408046,73.7739812 C216.408046,74.9455687 216.180177,75.9830092 215.726605,76.8852031 C215.270868,77.7884965 214.653837,78.4878205 213.873887,78.9837248 C213.093397,79.4801788 212.221434,79.7281309 211.25854,79.7281309 C210.430419,79.7281309 209.701348,79.5560489 209.070244,79.2113349 C208.439681,78.8671708 207.92657,78.4328422 207.533619,77.908899 L207.533619,85 L204.683908,85 L204.683908,68.0881255 L207.533619,68.0881255 L207.533619,69.7418727 C207.900049,69.2184793 208.40504,68.7808521 209.050217,68.4295407" id="Fill-30" fill="#2D363A" mask="url(#mask-4)"></path>
                <path d="M222.674228,68.4237661 C223.268539,68.0764911 223.947284,67.9022989 224.712644,67.9022989 L224.712644,70.9689703 L223.954911,70.9689703 C223.052822,70.9689703 222.373532,71.184769 221.91595,71.6158116 C221.458914,72.0468543 221.230123,72.7979891 221.230123,73.8686613 L221.230123,79.6264368 L218.362069,79.6264368 L218.362069,68.0692793 L221.230123,68.0692793 L221.230123,69.8633487 C221.598367,69.2514568 222.079917,68.7715959 222.674228,68.4237661" id="Fill-31" fill="#2D363A" mask="url(#mask-4)"></path>
                <path d="M233.428356,76.7464989 C233.887783,76.49415 234.254777,76.1148092 234.528792,75.6090215 C234.803355,75.1037788 234.940636,74.4889851 234.940636,73.7646403 C234.940636,72.6849361 234.655682,71.8548556 234.086868,71.2738537 C233.517506,70.6933969 232.821803,70.402896 231.99921,70.402896 C231.176617,70.402896 230.487476,70.6933969 229.931788,71.2738537 C229.376648,71.8548556 229.098804,72.6849361 229.098804,73.7646403 C229.098804,74.8437995 229.369537,75.67388 229.911005,76.2548819 C230.453019,76.8358838 231.135596,77.1258397 231.958189,77.1258397 C232.478873,77.1258397 232.968929,76.9993927 233.428356,76.7464989 M228.995979,78.8988219 C228.118693,78.4137453 227.429552,77.7270076 226.929105,76.8386089 C226.428111,75.9507552 226.178161,74.926099 226.178161,73.7646403 C226.178161,72.6031816 226.435768,71.5785254 226.949342,70.6901267 C227.464009,69.801728 228.166276,69.1155354 229.057783,68.6299138 C229.94929,68.1453822 230.943075,67.9022989 232.04023,67.9022989 C233.137385,67.9022989 234.131169,68.1453822 235.022676,68.6299138 C235.913637,69.1155354 236.61645,69.801728 237.131118,70.6901267 C237.644692,71.5785254 237.902299,72.6031816 237.902299,73.7646403 C237.902299,74.926099 237.637581,75.9507552 237.109787,76.8386089 C236.58254,77.7270076 235.869335,78.4137453 234.970717,78.8988219 C234.073194,79.3838985 233.068471,79.6264368 231.958189,79.6264368 C230.861034,79.6264368 229.873266,79.3838985 228.995979,78.8988219" id="Fill-32" fill="#2D363A" mask="url(#mask-4)"></path>
                <path d="M247.820391,71.8314349 C247.549156,71.3236081 247.183368,70.9339968 246.723566,70.6626009 C246.262683,70.3912049 245.768302,70.2557845 245.240421,70.2557845 C244.71146,70.2557845 244.224102,70.3878749 243.777268,70.6520558 C243.329893,70.9167917 242.967887,71.3025181 242.690168,71.8103448 C242.41191,72.3187266 242.273051,72.9203487 242.273051,73.6157661 C242.273051,74.3117385 242.41191,74.9200206 242.690168,75.4417224 C242.967887,75.9639792 243.333135,76.3641355 243.786993,76.6421915 C244.240852,76.9208025 244.724967,77.0595529 245.240421,77.0595529 C245.768302,77.0595529 246.262683,76.9241325 246.723566,76.6527365 C247.183368,76.3813406 247.549156,75.9917292 247.820391,75.4839025 C248.091085,74.9760757 248.226702,74.3672386 248.226702,73.6579462 C248.226702,72.9480988 248.091085,72.3398167 247.820391,71.8314349 M240.048604,70.5060903 C240.502462,69.6014372 241.122195,68.9060198 241.907803,68.4192831 C242.69341,67.9319915 243.567088,67.6883456 244.528836,67.6883456 C245.260412,67.6883456 245.95795,67.8520712 246.621448,68.1789673 C247.285486,68.5058634 247.813367,68.9409849 248.206711,69.4832218 L248.206711,63.9942529 L251.091954,63.9942529 L251.091954,79.4388461 L248.206711,79.4388461 L248.206711,77.7277752 C247.85389,78.2983172 247.359508,78.7573038 246.723566,79.104735 C246.086543,79.4527212 245.348483,79.6264368 244.508304,79.6264368 C243.560064,79.6264368 242.69341,79.3761309 241.907803,78.8755192 C241.122195,78.3743525 240.502462,77.66839 240.048604,76.7570769 C239.594205,75.8457637 239.367816,74.7984751 239.367816,73.6157661 C239.367816,72.446932 239.594205,71.4107434 240.048604,70.5060903" id="Fill-33" fill="#2D363A" mask="url(#mask-4)"></path>
                <path d="M264.770115,67.9022989 L264.770115,79.4797253 L261.899704,79.4797253 L261.899704,78.0170561 C261.533798,78.5188761 261.055306,78.9123297 260.464769,79.1979725 C259.874773,79.4830596 259.233356,79.6264368 258.541058,79.6264368 C257.65877,79.6264368 256.878785,79.4347115 256.20056,79.051261 C255.521795,78.668922 254.989716,78.104305 254.6027,77.3590773 C254.215684,76.6138496 254.022989,75.7258005 254.022989,74.6943742 L254.022989,67.9022989 L256.87229,67.9022989 L256.87229,74.2764687 C256.87229,75.1961942 257.095839,75.9030769 257.543478,76.3976724 C257.992199,76.892268 258.602222,77.1395658 259.375712,77.1395658 C260.162734,77.1395658 260.780336,76.892268 261.227975,76.3976724 C261.675614,75.9030769 261.899704,75.1961942 261.899704,74.2764687 L261.899704,67.9022989 L264.770115,67.9022989 Z" id="Fill-34" fill="#2D363A" mask="url(#mask-4)"></path>
                <path d="M267.45907,70.6797712 C267.948838,69.7984578 268.627924,69.1149904 269.495769,68.6299138 C270.363614,68.1453822 271.35767,67.9022989 272.477939,67.9022989 C273.919879,67.9022989 275.113864,68.2543882 276.058776,68.9580217 C277.003689,69.6616553 277.637539,70.6487045 277.95977,71.9197142 L274.788283,71.9197142 C274.620187,71.4280972 274.33649,71.042216 273.93775,70.7615256 C273.53901,70.4819253 273.045333,70.3413076 272.456717,70.3413076 C271.616795,70.3413076 270.951671,70.6388939 270.461903,71.2329765 C269.971576,71.8276041 269.726971,72.6713104 269.726971,73.7646403 C269.726971,74.8437995 269.971576,75.6809654 270.461903,76.275048 C270.951671,76.8696756 271.616795,77.1667169 272.456717,77.1667169 C273.646793,77.1667169 274.424168,76.6478484 274.788283,75.6090215 L277.95977,75.6090215 C277.637539,76.8386089 277.000338,77.8158475 276.048166,78.5396472 C275.095993,79.2639919 273.905918,79.6264368 272.477939,79.6264368 C271.35767,79.6264368 270.363614,79.3838985 269.495769,78.8988219 C268.627924,78.4137453 267.948838,77.7302778 267.45907,76.8489645 C266.968743,75.9676511 266.724138,74.9397248 266.724138,73.7646403 C266.724138,72.5890109 266.968743,71.5610845 267.45907,70.6797712" id="Fill-35" fill="#2D363A" mask="url(#mask-4)"></path>
                <path d="M283.213748,70.1377963 L283.213748,75.6319727 C283.213748,76.0146788 283.306606,76.2916228 283.492872,76.4622595 C283.678588,76.6334414 283.991778,76.7184872 284.432991,76.7184872 L285.775862,76.7184872 L285.775862,79.137931 L283.957712,79.137931 C281.519225,79.137931 280.299982,77.9625545 280.299982,75.6118016 L280.299982,70.1377963 L278.936782,70.1377963 L278.936782,67.7799562 L280.299982,67.7799562 L280.299982,64.9712644 L283.213748,64.9712644 L283.213748,67.7799562 L285.775862,67.7799562 L285.775862,70.1377963 L283.213748,70.1377963 Z" id="Fill-36" fill="#2D363A" mask="url(#mask-4)"></path>
                <path d="M288.028546,79.137931 L290.811647,79.137931 L290.811647,67.746881 L288.028546,67.746881 L288.028546,79.137931 Z M288.217258,65.9064224 C287.892695,65.5843695 287.729885,65.1835804 287.729885,64.7035083 C287.729885,64.223983 287.892695,63.8226471 288.217258,63.5005941 C288.54235,63.1785412 288.949375,63.0172414 289.439919,63.0172414 C289.930464,63.0172414 290.337489,63.1785412 290.662052,63.5005941 C290.987144,63.8226471 291.149425,64.223983 291.149425,64.7035083 C291.149425,65.1835804 290.987144,65.5843695 290.662052,65.9064224 C290.337489,66.2284753 289.930464,66.3892284 289.439919,66.3892284 C288.949375,66.3892284 288.54235,66.2284753 288.217258,65.9064224 L288.217258,65.9064224 Z" id="Fill-37" fill="#2D363A" mask="url(#mask-4)"></path>
                <path d="M300.353643,76.7464989 C300.81307,76.49415 301.180064,76.1148092 301.45408,75.6090215 C301.728642,75.1037788 301.865923,74.4889851 301.865923,73.7646403 C301.865923,72.6849361 301.580969,71.8548556 301.012155,71.2738537 C300.442794,70.6933969 299.74709,70.402896 298.924497,70.402896 C298.101904,70.402896 297.412764,70.6933969 296.857076,71.2738537 C296.301935,71.8548556 296.024091,72.6849361 296.024091,73.7646403 C296.024091,74.8437995 296.294825,75.67388 296.836292,76.2548819 C297.378307,76.8358838 298.060884,77.1258397 298.883477,77.1258397 C299.404161,77.1258397 299.894216,76.9993927 300.353643,76.7464989 M295.921267,78.8988219 C295.04398,78.4137453 294.35484,77.7270076 293.854393,76.8386089 C293.353398,75.9507552 293.103448,74.926099 293.103448,73.7646403 C293.103448,72.6031816 293.361056,71.5785254 293.874629,70.6901267 C294.389297,69.801728 295.091564,69.1155354 295.983071,68.6299138 C296.874578,68.1453822 297.868362,67.9022989 298.965517,67.9022989 C300.062673,67.9022989 301.056457,68.1453822 301.947964,68.6299138 C302.838924,69.1155354 303.541738,69.801728 304.056405,70.6901267 C304.569979,71.5785254 304.827586,72.6031816 304.827586,73.7646403 C304.827586,74.926099 304.562869,75.9507552 304.035075,76.8386089 C303.507828,77.7270076 302.794622,78.4137453 301.896005,78.8988219 C300.998481,79.3838985 299.993758,79.6264368 298.883477,79.6264368 C297.786321,79.6264368 296.798554,79.3838985 295.921267,78.8988219" id="Fill-38" fill="#2D363A" mask="url(#mask-4)"></path>
                <path d="M316.2871,69.2064601 C317.114677,70.075716 317.528736,71.2889022 317.528736,72.8465733 L317.528736,79.6264368 L314.679037,79.6264368 L314.679037,73.2426478 C314.679037,72.3251307 314.455499,71.619519 314.007341,71.125258 C313.559725,70.6321064 312.949191,70.3852533 312.17574,70.3852533 C311.388216,70.3852533 310.76794,70.6321064 310.313287,71.125258 C309.858634,71.619519 309.631308,72.3251307 309.631308,73.2426478 L309.631308,79.6264368 L306.781609,79.6264368 L306.781609,68.0692714 L309.631308,68.0692714 L309.631308,69.5087859 C310.011268,69.0084229 310.496772,68.6156767 311.086738,68.3299927 C311.676704,68.0454182 312.325126,67.9022989 313.030379,67.9022989 C314.374311,67.9022989 315.459524,68.3372042 316.2871,69.2064601" id="Fill-39" fill="#2D363A" mask="url(#mask-4)"></path>
                <path d="M327.277868,79.1244409 C326.55135,78.789777 325.976146,78.3352009 325.552255,77.7618029 C325.1289,77.1873146 324.897101,76.5523253 324.856322,75.8551997 L327.701223,75.8551997 C327.755416,76.292879 327.966825,76.6547957 328.337059,76.9414947 C328.706757,77.2281938 329.167135,77.3720884 329.719267,77.3720884 C330.257448,77.3720884 330.677583,77.2625323 330.980209,77.0439651 C331.283372,76.825398 331.434149,76.5452396 331.434149,76.20349 C331.434149,75.8344876 331.249032,75.5581446 330.879334,75.3733708 C330.5091,75.1891422 329.921018,74.9874717 329.114015,74.7689046 C328.279646,74.5639638 327.597128,74.3524824 327.065386,74.1333702 C326.53418,73.9148031 326.077558,73.5801391 325.69391,73.1288334 C325.310261,72.6780727 325.118705,72.0703362 325.118705,71.3050786 C325.118705,70.67663 325.296847,70.1026868 325.653667,69.5832492 C326.00995,69.0638115 326.521302,68.65393 327.186651,68.3530595 C327.852536,68.0532791 328.63593,67.9022989 329.537906,67.9022989 C330.869139,67.9022989 331.932087,68.2407781 332.725676,68.9166466 C333.519264,69.5936052 333.95657,70.5054826 334.037592,71.6533689 L331.33381,71.6533689 C331.29303,71.2026082 331.10845,70.8439619 330.778459,70.5774299 C330.449004,70.3108979 330.008479,70.1773594 329.45742,70.1773594 C328.945531,70.1773594 328.552224,70.2732891 328.276427,70.4646035 C328.000629,70.6559179 327.86273,70.9224499 327.86273,71.2641995 C327.86273,71.6468283 328.051067,71.9367976 328.428277,72.1351977 C328.804413,72.3335978 329.389812,72.5347232 330.183401,72.739664 C330.990404,72.9446048 331.656289,73.1566312 332.181056,73.3751984 C332.705286,73.5937655 333.159762,73.9322448 333.542874,74.3895462 C333.926522,74.8473926 334.125053,75.4524039 334.137931,76.20349 C334.137931,76.8597364 333.959789,77.447306 333.603506,77.9661986 C333.246686,78.4861812 332.73587,78.8922474 332.069986,79.1860322 C331.404101,79.4798169 330.627145,79.6264368 329.739657,79.6264368 C328.824803,79.6264368 328.004385,79.4591048 327.277868,79.1244409" id="Fill-40" fill="#2D363A" mask="url(#mask-4)"></path>
                <path d="M339.880415,70.1377963 L339.880415,75.6319727 C339.880415,76.0146788 339.973273,76.2916228 340.159539,76.4622595 C340.345255,76.6334414 340.658445,76.7184872 341.099658,76.7184872 L342.442529,76.7184872 L342.442529,79.137931 L340.624378,79.137931 C338.185892,79.137931 336.966649,77.9625545 336.966649,75.6118016 L336.966649,70.1377963 L335.603448,70.1377963 L335.603448,67.7799562 L336.966649,67.7799562 L336.966649,64.9712644 L339.880415,64.9712644 L339.880415,67.7799562 L342.442529,67.7799562 L342.442529,70.1377963 L339.880415,70.1377963 Z" id="Fill-41" fill="#2D363A" mask="url(#mask-4)"></path>
                <path d="M355.632184,67.9022989 L355.632184,79.4797253 L352.761773,79.4797253 L352.761773,78.0170561 C352.395867,78.5188761 351.917375,78.9123297 351.326838,79.1979725 C350.736842,79.4830596 350.095425,79.6264368 349.403127,79.6264368 C348.520839,79.6264368 347.740854,79.4347115 347.062629,79.051261 C346.383863,78.668922 345.851785,78.104305 345.464769,77.3590773 C345.077753,76.6138496 344.885057,75.7258005 344.885057,74.6943742 L344.885057,67.9022989 L347.734359,67.9022989 L347.734359,74.2764687 C347.734359,75.1961942 347.957907,75.9030769 348.405547,76.3976724 C348.854268,76.892268 349.464291,77.1395658 350.237781,77.1395658 C351.024803,77.1395658 351.642405,76.892268 352.090044,76.3976724 C352.537683,75.9030769 352.761773,75.1961942 352.761773,74.2764687 L352.761773,67.9022989 L355.632184,67.9022989 Z" id="Fill-42" fill="#2D363A" mask="url(#mask-4)"></path>
                <path d="M366.038781,71.8314349 C365.767547,71.3236081 365.401759,70.9339968 364.941957,70.6626009 C364.481074,70.3912049 363.986693,70.2557845 363.458812,70.2557845 C362.929851,70.2557845 362.442493,70.3878749 361.995658,70.6520558 C361.548284,70.9167917 361.186277,71.3025181 360.908559,71.8103448 C360.630301,72.3187266 360.491442,72.9203487 360.491442,73.6157661 C360.491442,74.3117385 360.630301,74.9200206 360.908559,75.4417224 C361.186277,75.9639792 361.551525,76.3641355 362.005384,76.6421915 C362.459243,76.9208025 362.943358,77.0595529 363.458812,77.0595529 C363.986693,77.0595529 364.481074,76.9241325 364.941957,76.6527365 C365.401759,76.3813406 365.767547,75.9917292 366.038781,75.4839025 C366.309476,74.9760757 366.445093,74.3672386 366.445093,73.6579462 C366.445093,72.9480988 366.309476,72.3398167 366.038781,71.8314349 M358.266995,70.5060903 C358.720853,69.6014372 359.340586,68.9060198 360.126194,68.4192831 C360.911801,67.9319915 361.785479,67.6883456 362.747227,67.6883456 C363.478803,67.6883456 364.176341,67.8520712 364.839838,68.1789673 C365.503877,68.5058634 366.031757,68.9409849 366.425101,69.4832218 L366.425101,63.9942529 L369.310345,63.9942529 L369.310345,79.4388461 L366.425101,79.4388461 L366.425101,77.7277752 C366.07228,78.2983172 365.577899,78.7573038 364.941957,79.104735 C364.304934,79.4527212 363.566873,79.6264368 362.726695,79.6264368 C361.778455,79.6264368 360.911801,79.3761309 360.126194,78.8755192 C359.340586,78.3743525 358.720853,77.66839 358.266995,76.7570769 C357.812596,75.8457637 357.586207,74.7984751 357.586207,73.6157661 C357.586207,72.446932 357.812596,71.4107434 358.266995,70.5060903" id="Fill-43" fill="#2D363A" mask="url(#mask-4)"></path>
                <path d="M372.539512,79.137931 L375.322613,79.137931 L375.322613,67.746881 L372.539512,67.746881 L372.539512,79.137931 Z M372.728752,65.9064224 C372.403661,65.5843695 372.241379,65.1835804 372.241379,64.7035083 C372.241379,64.223983 372.403661,63.8226471 372.728752,63.5005941 C373.053315,63.1785412 373.46034,63.0172414 373.950885,63.0172414 C374.44143,63.0172414 374.848455,63.1785412 375.173547,63.5005941 C375.498109,63.8226471 375.66092,64.223983 375.66092,64.7035083 C375.66092,65.1835804 375.498109,65.5843695 375.173547,65.9064224 C374.848455,66.2284753 374.44143,66.3892284 373.950885,66.3892284 C373.46034,66.3892284 373.053315,66.2284753 372.728752,65.9064224 L372.728752,65.9064224 Z" id="Fill-44" fill="#2D363A" mask="url(#mask-4)"></path>
                <path d="M384.865137,76.7464989 C385.324564,76.49415 385.691559,76.1148092 385.965574,75.6090215 C386.240136,75.1037788 386.377418,74.4889851 386.377418,73.7646403 C386.377418,72.6849361 386.092463,71.8548556 385.523649,71.2738537 C384.954288,70.6933969 384.258584,70.402896 383.435991,70.402896 C382.613398,70.402896 381.924258,70.6933969 381.36857,71.2738537 C380.813429,71.8548556 380.535585,72.6849361 380.535585,73.7646403 C380.535585,74.8437995 380.806319,75.67388 381.347786,76.2548819 C381.889801,76.8358838 382.572378,77.1258397 383.394971,77.1258397 C383.915655,77.1258397 384.40571,76.9993927 384.865137,76.7464989 M380.432761,78.8988219 C379.555474,78.4137453 378.866334,77.7270076 378.365887,76.8386089 C377.864893,75.9507552 377.614943,74.926099 377.614943,73.7646403 C377.614943,72.6031816 377.87255,71.5785254 378.386123,70.6901267 C378.900791,69.801728 379.603058,69.1155354 380.494565,68.6299138 C381.386072,68.1453822 382.379856,67.9022989 383.477011,67.9022989 C384.574167,67.9022989 385.567951,68.1453822 386.459458,68.6299138 C387.350418,69.1155354 388.053232,69.801728 388.5679,70.6901267 C389.081473,71.5785254 389.33908,72.6031816 389.33908,73.7646403 C389.33908,74.926099 389.074363,75.9507552 388.546569,76.8386089 C388.019322,77.7270076 387.306116,78.4137453 386.407499,78.8988219 C385.509976,79.3838985 384.505253,79.6264368 383.394971,79.6264368 C382.297816,79.6264368 381.310048,79.3838985 380.432761,78.8988219" id="Fill-45" fill="#2D363A" mask="url(#mask-4)"></path>
            </g>
        </g>
    </g>
</svg>